<svg xmlns="http://www.w3.org/2000/svg" height="682.667" viewBox="0 0 512 512" width="682.667"><linearGradient id="A" gradientUnits="userSpaceOnUse" x1="0" x2="512" y1="256" y2="256"><stop offset="0" stop-color="#00f38d"/><stop offset="1" stop-color="#009eff"/></linearGradient><path d="M512 256a256 256 0 11-512 0 256 256 0 01512 0zm0 0" fill="url(#A)"/><path d="M314 248a97 97 0 10-116 0c-63 24-108 84-108 156h30a136 136 0 01272 0h30c0-72-45-132-108-156zm-125-78a67 67 0 11134 1 67 67 0 01-134-1zm0 0" fill="#fff"/></svg>