<?xml version="1.0" standalone="no"?>
<!DOCTYPE svg PUBLIC "-//W3C//DTD SVG 20010904//EN"
 "http://www.w3.org/TR/2001/REC-SVG-20010904/DTD/svg10.dtd">
<svg version="1.0" xmlns="http://www.w3.org/2000/svg"
 width="180.000000pt" height="180.000000pt" viewBox="0 0 180.000000 180.000000"
 preserveAspectRatio="xMidYMid meet">

<g transform="translate(0.000000,180.000000) scale(0.100000,-0.100000)"
fill="#000000" stroke="none">
<path d="M123 1789 c-45 -13 -100 -71 -113 -118 -7 -27 -10 -283 -8 -793 l3
-753 23 -37 c13 -20 40 -47 60 -60 l37 -23 775 0 775 0 37 23 c20 13 47 40 60
60 l23 37 0 775 0 775 -23 37 c-13 20 -40 47 -60 60 l-37 23 -760 2 c-456 1
-773 -2 -792 -8z m969 -324 c73 -21 143 -66 163 -106 26 -50 12 -55 -117 -39
-176 22 -293 19 -350 -9 -152 -74 -258 -289 -246 -500 6 -107 34 -176 93 -230
50 -46 95 -61 185 -61 152 0 274 64 352 184 21 32 38 64 38 70 0 7 -19 17 -42
23 -132 35 -207 166 -178 307 20 99 101 165 203 166 123 0 199 -95 201 -252 1
-43 3 -77 6 -75 91 49 116 47 107 -9 -8 -48 -48 -99 -96 -120 -35 -15 -40 -22
-50 -71 -33 -146 -156 -305 -285 -368 -100 -50 -197 -68 -321 -62 -253 13
-404 138 -452 373 -14 67 -14 94 -4 178 21 186 87 330 202 447 92 93 208 153
334 173 55 8 201 -2 257 -19z"/>
<path d="M1189 1107 c-15 -33 5 -102 39 -136 l27 -26 3 69 c2 49 -1 75 -13 92
-20 30 -42 31 -56 1z"/>
</g>
</svg>
