<?xml version="1.0" encoding="utf-8"?>
<!-- Generator: Adobe Illustrator 23.0.3, SVG Export Plug-In . SVG Version: 6.00 Build 0)  -->
<svg version="1.1" id="Layer_1" xmlns="http://www.w3.org/2000/svg" xmlns:xlink="http://www.w3.org/1999/xlink" x="0px" y="0px"
	 viewBox="0 0 1280 720" style="enable-background:new 0 0 1280 720;" xml:space="preserve">
<style type="text/css">
	.st0{fill-rule:evenodd;clip-rule:evenodd;fill:#CC3050;}
	.st1{fill-rule:evenodd;clip-rule:evenodd;fill:#010101;}
	.st2{fill-rule:evenodd;clip-rule:evenodd;fill:#E6E6E5;}
	.st3{fill-rule:evenodd;clip-rule:evenodd;fill:#CCCCCC;}
	.st4{fill-rule:evenodd;clip-rule:evenodd;fill:#4E4E4E;}
	.st5{fill-rule:evenodd;clip-rule:evenodd;fill:#818181;}
	.st6{fill-rule:evenodd;clip-rule:evenodd;fill:#F6EB16;}
	.st7{fill-rule:evenodd;clip-rule:evenodd;fill:#F6A5BD;}
	.st8{fill-rule:evenodd;clip-rule:evenodd;fill:#FFFFFF;}
	.st9{fill-rule:evenodd;clip-rule:evenodd;fill:#989898;}
	.st10{fill:#9E1F63;}
</style>
<g>
	<path class="st0" d="M435.93,531.88c73,0,132.22,9.21,132.22,20.52c0,11.31-59.22,20.26-132.22,20.26s-132.22-8.95-132.22-20.26
		C303.71,541.09,362.93,531.88,435.93,531.88L435.93,531.88z"/>
	<polygon class="st1" points="388.87,467.94 402.87,514.77 417.56,508.98 403.79,462.15 	"/>
	<path class="st2" d="M415.73,502.14l-35.81,13.68c-7.12,2.89-11.02,11.84-8.72,20l4.36,14.74l48.89-18.68L415.73,502.14z"/>
	<polygon class="st3" points="371.19,535.82 375.56,550.56 424.45,531.88 420.09,516.88 	"/>
	<polygon class="st1" points="418.48,413.47 405.86,460.83 390.71,455.3 403.56,408.2 	"/>
	<path class="st4" d="M400.58,450.83c9.41,3.42,14.69,14.74,11.71,25.52c-2.98,10.79-12.85,16.84-22.27,13.42
		c-9.41-3.42-14.46-14.74-11.71-25.52C381.29,453.46,391.17,447.41,400.58,450.83L400.58,450.83z"/>
	<path class="st5" d="M400.58,450.83c9.41,3.42,14.69,14.74,11.71,25.52l-33.97-12.1C381.29,453.46,391.17,447.41,400.58,450.83
		L400.58,450.83z"/>
	<rect x="456.82" y="477.15" class="st1" width="15.84" height="49.47"/>
	<polygon class="st1" points="452.22,417.68 473.8,460.57 460.26,469.51 438.45,426.62 	"/>
	<path class="st5" d="M429.5,320.58c28.69,0,51.88,26.58,51.88,59.47c0,32.89-23.18,59.73-51.88,59.73
		c-28.92,0-52.11-26.84-52.11-59.73C377.39,347.16,400.58,320.58,429.5,320.58L429.5,320.58z"/>
	<path class="st4" d="M429.5,439.78c-28.92,0-52.11-26.84-52.11-59.73c0-32.89,23.18-59.47,52.11-59.47V439.78z"/>
	<polygon class="st1" points="524.99,413.2 540.6,367.15 555.06,373.47 539.45,419.78 	"/>
	<polygon class="st1" points="550.93,377.42 510.76,359.26 516.27,342.68 556.67,360.58 	"/>
	<path class="st5" d="M508.46,367.94c-9.87-1.58-16.53-11.84-15.15-22.89c1.15-11.05,10.1-18.95,19.97-17.37
		c9.64,1.58,16.53,11.84,15.15,22.89C527.06,361.63,518.1,369.52,508.46,367.94L508.46,367.94z"/>
	<path class="st4" d="M508.46,367.94c-9.87-1.58-16.53-11.84-15.15-22.89l35.12,5.53C527.06,361.63,518.1,369.52,508.46,367.94
		L508.46,367.94z"/>
	<path class="st4" d="M546.8,382.68c-6.89-1.32-11.94-8.68-11.02-16.58c0.92-8.16,7.58-13.68,14.46-12.63
		c6.89,1.05,11.94,8.42,11.02,16.58C560.11,377.94,553.68,383.73,546.8,382.68L546.8,382.68z"/>
	<path class="st5" d="M550.24,353.47c6.89,1.05,11.94,8.42,11.02,16.58c-1.15,7.89-7.58,13.68-14.46,12.63L550.24,353.47z"/>
	<path class="st3" d="M516.5,447.67c-8.03-6.05-11.71-18.16-8.03-28.95c4.36-12.37,16.53-18.16,27.09-13.42
		c10.79,5,16.07,18.95,11.71,31.05c-3.67,10.79-13.54,16.84-23.18,14.74l4.36-12.63c3.67-0.26,6.89-2.89,8.26-6.84
		c2.07-5.53-0.46-12.1-5.28-14.21c-4.82-2.37-10.33,0.53-12.4,6.05c-1.38,4.21-0.46,8.68,1.84,11.58L516.5,447.67z"/>
	<path class="st2" d="M535.55,405.31c10.79,5,16.07,18.95,11.71,31.05c-3.67,10.79-13.54,16.84-23.18,14.74l4.36-12.63
		c3.67-0.26,6.89-2.89,8.26-6.84c2.07-5.53-0.46-12.1-5.28-14.21L535.55,405.31z"/>
	<polygon class="st1" points="341.58,267.16 331.48,315.32 316.1,311.11 326.2,262.95 	"/>
	<polygon class="st1" points="320.01,306.63 362.01,318.21 358.34,335.84 316.33,324.26 	"/>
	<path class="st4" d="M363.16,309.26c9.87,0,17.68,9.21,17.68,20.52c0,11.05-7.8,20.26-17.68,20.26s-17.68-9.21-17.68-20.26
		C345.49,318.47,353.29,309.26,363.16,309.26L363.16,309.26z"/>
	<path class="st5" d="M363.16,309.26c9.87,0,17.68,9.21,17.68,20.52h-35.35C345.49,318.47,353.29,309.26,363.16,309.26
		L363.16,309.26z"/>
	<path class="st5" d="M323.45,300.84c7.12,0,12.85,6.58,12.85,14.74c0,7.89-5.74,14.47-12.85,14.47c-7.12,0-12.85-6.58-12.85-14.47
		C310.59,307.42,316.33,300.84,323.45,300.84L323.45,300.84z"/>
	<path class="st4" d="M323.45,330.05c-7.12,0-12.85-6.58-12.85-14.47c0-8.16,5.74-14.74,12.85-14.74V330.05z"/>
	<path class="st2" d="M345.72,231.64c8.95,4.74,13.77,16.31,11.48,27.37c-2.75,12.89-14.23,20.79-25.25,17.63
		c-11.25-3.16-18.13-16.31-15.38-28.95c2.53-11.31,11.71-18.68,21.35-18.16l-2.75,13.16c-3.67,0.79-6.66,3.68-7.58,7.89
		c-1.15,6.05,1.84,11.84,6.89,13.42c5.28,1.32,10.33-2.11,11.71-7.89c0.92-4.47-0.46-8.68-3.21-11.31L345.72,231.64z"/>
	<path class="st3" d="M331.94,276.63c-11.25-3.16-18.13-16.31-15.38-28.95c2.53-11.31,11.71-18.68,21.35-18.16l-2.75,13.16
		c-3.67,0.79-6.66,3.68-7.58,7.89c-1.15,6.05,1.84,11.84,6.89,13.42L331.94,276.63z"/>
	<path class="st5" d="M423.07,291.11h23.41c2.3,0,4.13,2.37,4.13,5v32.1c0,2.63-1.84,5-4.13,5h-23.41c-2.3,0-4.13-2.37-4.13-5v-32.1
		C418.94,293.48,420.78,291.11,423.07,291.11L423.07,291.11z"/>
	<path class="st4" d="M421.01,291.11h11.71c1.15,0,2.07,1.32,2.07,2.63v37.1c0,1.32-0.92,2.37-2.07,2.37h-11.71
		c-1.15,0-2.07-1.05-2.07-2.37v-37.1C418.94,292.42,419.86,291.11,421.01,291.11L421.01,291.11z"/>
	<path class="st6" d="M467.83,368.21l13.54-10l-0.92,7.1l25.02-5.26l-29.38,15.26c0,0-0.23-6.58-0.46-6.84
		C475.18,368.47,467.83,368.21,467.83,368.21L467.83,368.21z"/>
	<path class="st2" d="M372.57,299.26L508,319c6.43,1.05,10.79,7.63,10.1,14.74l-8.03,72.89c-0.92,7.1-6.66,12.1-13.08,11.31
		l-135.43-20c-6.43-0.79-10.79-7.37-10.1-14.74l8.03-72.63C360.41,303.47,366.14,298.21,372.57,299.26L372.57,299.26z"/>
	<path class="st3" d="M372.57,299.26l67.72,9.74l-11.02,98.94l-67.72-10c-6.43-0.79-10.79-7.37-10.1-14.74l8.03-72.63
		C360.41,303.47,366.14,298.21,372.57,299.26L372.57,299.26z"/>
	<path class="st2" d="M375.56,192.17H494c6.89,0,12.4,6.58,12.4,14.21v79.2c0,7.89-5.51,14.21-12.4,14.21H375.56
		c-6.89,0-12.4-6.32-12.4-14.21v-79.2C363.16,198.75,368.67,192.17,375.56,192.17L375.56,192.17z"/>
	<path class="st3" d="M375.33,192.17h59.45v107.62h-59.45c-6.66,0-12.17-6.32-12.17-14.21v-79.2
		C363.16,198.75,368.67,192.17,375.33,192.17L375.33,192.17z"/>
	<path class="st1" d="M410.22,231.9c3.21,0,5.51,2.89,5.51,6.32c0,3.42-2.3,6.32-5.51,6.32c-2.98,0-5.28-2.89-5.28-6.32
		C404.94,234.8,407.23,231.9,410.22,231.9L410.22,231.9z"/>
	<path class="st1" d="M459.11,231.9c3.21,0,5.51,2.89,5.51,6.32c0,3.42-2.3,6.32-5.51,6.32c-2.98,0-5.51-2.89-5.51-6.32
		C453.6,234.8,456.13,231.9,459.11,231.9L459.11,231.9z"/>
	<path class="st7" d="M369.59,258.48c8.72,0,15.61,7.89,15.61,17.37c0,9.74-6.89,17.63-15.61,17.63c-8.49,0-15.38-7.89-15.38-17.63
		C354.21,266.37,361.09,258.48,369.59,258.48L369.59,258.48z"/>
	<path class="st7" d="M499.97,258.48c8.49,0,15.38,7.89,15.38,17.37c0,9.74-6.89,17.63-15.38,17.63c-8.72,0-15.61-7.89-15.61-17.63
		C484.36,266.37,491.25,258.48,499.97,258.48L499.97,258.48z"/>
	<path class="st1" d="M434.78,254.53c17.45,0,31.91,13.95,35.58,32.63H399.2C402.87,268.48,417.33,254.53,434.78,254.53
		L434.78,254.53z"/>
	<path class="st8" d="M417.1,259.79c3.67-2.37,7.58-3.95,11.94-4.74c0.46,1.05,0.92,2.11,0.92,3.16v11.58
		c0,2.89-2.07,5.26-4.59,5.26h-3.67c-2.52,0-4.59-2.37-4.59-5.26V259.79z"/>
	<path class="st8" d="M444.19,260.32c3.67,2.63,6.89,6.05,9.41,9.74l-3.21,9.21c-1.15,2.63-3.67,3.95-5.97,2.63l-3.44-1.58
		c-2.3-1.05-3.44-3.95-2.52-6.84l3.9-10.53C442.81,261.9,443.5,261.11,444.19,260.32L444.19,260.32z"/>
	<polygon class="st9" points="431.11,171.64 434.55,171.64 437.99,171.64 441.44,192.17 434.55,192.17 427.66,192.17 	"/>
	<polygon class="st5" points="431.11,171.64 434.55,171.64 434.78,171.64 434.78,192.17 434.55,192.17 427.66,192.17 	"/>
	<polygon class="st9" points="419.86,155.86 421.01,154.54 422.15,152.96 436.16,166.12 433.63,169.01 431.11,171.64 	"/>
	<polygon class="st5" points="419.86,155.86 421.01,154.54 433.63,169.01 431.11,171.64 	"/>
	<path class="st6" d="M439.14,168.75l8.72-8.42l-0.23,5l17.45-6.32l-19.74,13.95c0,0-0.46-4.74-0.69-4.74
		S439.14,168.75,439.14,168.75L439.14,168.75z"/>
	<polygon class="st6" points="425.6,171.12 417.33,165.85 418.94,170.85 401.49,171.38 423.07,176.91 421.7,171.38 	"/>
	<path class="st6" d="M437.3,147.43c-0.23,0.53-0.23,5.26-3.21,6.05c-1.84,0.53-2.52,0.79-2.98,0.79c0.46,0,1.15,0.26,2.98,0.79
		c2.98,0.79,2.98,5.53,3.21,6.05c0-0.53,0-5.26,2.98-6.05c1.84-0.53,2.53-0.79,2.98-0.79c-0.46,0-1.15-0.26-2.98-0.79
		C437.3,152.7,437.3,147.96,437.3,147.43L437.3,147.43z"/>
	<path class="st1" d="M398.97,350.05l72.31,10.53c2.07,0.53,3.67,2.63,3.44,5.26l-2.75,25c-0.46,2.63-2.3,4.47-4.59,3.95
		l-72.08-10.53c-2.3-0.26-3.9-2.63-3.44-5l2.75-25.26C394.84,351.63,396.9,349.79,398.97,350.05L398.97,350.05z"/>
	<path class="st5" d="M404.25,354l5.97,1.05c0.46,0,0.92,0.53,0.92,1.32l-2.75,25.52c-0.23,0.53-0.69,1.05-1.38,1.05l-5.74-1.05
		c-0.69,0-1.15-0.53-0.92-1.32l2.75-25.52C403.1,354.52,403.79,354,404.25,354L404.25,354z"/>
	<path class="st5" d="M422.61,356.89l5.97,0.79c0.46,0,0.92,0.79,0.92,1.32l-2.75,25.52c-0.23,0.53-0.69,1.05-1.38,1.05l-5.74-0.79
		c-0.69-0.26-1.15-0.79-1.15-1.58l2.98-25.26C421.47,357.15,422.15,356.63,422.61,356.89L422.61,356.89z"/>
	<path class="st5" d="M440.98,359.52l5.97,0.79c0.46,0,0.92,0.79,0.92,1.32l-2.98,25.52c0,0.79-0.46,1.05-1.15,1.05l-5.97-0.79
		c-0.46-0.26-0.92-0.79-0.92-1.32l2.98-25.52C439.83,359.79,440.29,359.26,440.98,359.52L440.98,359.52z"/>
	<path class="st5" d="M459.34,362.15l5.97,0.79c0.46,0.26,0.92,0.79,0.92,1.58l-2.98,25.26c0,0.79-0.46,1.32-1.15,1.05l-5.97-0.79
		c-0.46,0-0.92-0.79-0.92-1.32l2.98-25.52C458.19,362.42,458.65,362.15,459.34,362.15L459.34,362.15z"/>
	<path class="st4" d="M404.25,354l2.98,0.53l-3.21,27.89l-2.75-0.53c-0.69,0-1.15-0.53-0.92-1.32l2.75-25.52
		C403.1,354.52,403.79,354,404.25,354L404.25,354z"/>
	<path class="st4" d="M422.61,356.89l2.98,0.26l-3.21,27.89l-2.75-0.26c-0.69-0.26-1.15-0.79-1.15-1.58l2.98-25.26
		C421.47,357.15,422.15,356.63,422.61,356.89L422.61,356.89z"/>
	<path class="st4" d="M440.98,359.52l2.98,0.26l-3.21,27.89l-2.75-0.26c-0.69-0.26-1.15-0.79-1.15-1.32l2.98-25.52
		C439.83,359.79,440.52,359.26,440.98,359.52L440.98,359.52z"/>
	<path class="st4" d="M459.34,362.15l2.98,0.53l-3.21,27.89l-2.98-0.53c-0.46,0-0.92-0.79-0.92-1.32l2.98-25.52
		C458.19,362.68,458.65,362.15,459.34,362.15L459.34,362.15z"/>
	<path class="st6" d="M474.72,337.42c0,0.53-0.23,6.32-3.9,7.37c-2.07,0.79-3.21,0.79-3.67,1.05c0.46,0,1.61,0.26,3.67,0.79
		c3.67,1.05,3.9,6.84,3.9,7.37c0-0.53,0.23-6.32,3.67-7.37c2.3-0.53,3.44-0.79,3.9-0.79c-0.46-0.26-1.61-0.26-3.9-1.05
		C474.95,343.73,474.72,337.95,474.72,337.42L474.72,337.42z"/>
	<path class="st6" d="M473.11,378.47c0,0.53-0.23,6.32-3.67,7.37c-2.3,0.53-3.44,0.79-3.9,0.79c0.46,0,1.61,0.26,3.9,0.79
		c3.44,1.05,3.67,7.1,3.67,7.63c0-0.53,0.23-6.58,3.9-7.63c2.07-0.53,3.21-0.79,3.67-0.79c-0.46,0-1.61-0.26-3.67-0.79
		C473.34,384.78,473.11,379,473.11,378.47L473.11,378.47z"/>
	<path class="st6" d="M455.44,354c0,0.26,0,3.95-2.3,4.47c-1.38,0.53-2.07,0.53-2.3,0.53c0.23,0,0.92,0.26,2.3,0.53
		c2.3,0.79,2.3,4.47,2.3,4.74c0-0.26,0-3.95,2.3-4.74c1.38-0.26,2.07-0.53,2.3-0.53c-0.23,0-0.92,0-2.3-0.53
		C455.44,357.94,455.44,354.26,455.44,354L455.44,354z"/>
	<path class="st4" d="M458.88,449.25c8.49-5.79,19.51-2.37,24.33,7.37c5.05,9.74,2.07,22.1-6.43,27.89
		c-8.49,5.53-19.28,2.37-24.33-7.37C447.63,467.41,450.39,454.78,458.88,449.25L458.88,449.25z"/>
	<path class="st5" d="M458.88,449.25c8.49-5.79,19.51-2.37,24.33,7.37l-30.76,20.52C447.63,467.41,450.39,454.78,458.88,449.25
		L458.88,449.25z"/>
	<path class="st2" d="M456.82,519.25h37.88c7.58,0,13.54,7.1,13.54,15.79v15.53h-51.42V519.25z"/>
	<rect x="456.82" y="535.04" class="st3" width="51.42" height="15.53"/>
	<path class="st6" d="M471.28,366.63l8.49-8.16l-0.23,5l16.3-6.05l-18.59,13.16c0,0-0.46-4.47-0.69-4.47
		C476.33,366.1,471.28,366.63,471.28,366.63L471.28,366.63z"/>
	<path class="st6" d="M375.1,451.36l-5.05-10.79l-1.38,4.47l-13.54-12.37l13.31,20c0,0,1.84-3.95,2.07-3.95
		S375.1,451.36,375.1,451.36L375.1,451.36z"/>
	<polygon class="st6" points="379,482.41 370.74,477.15 372.34,482.41 354.9,482.93 376.7,488.2 375.33,482.93 	"/>
	<path class="st6" d="M363.62,455.57c0,0.53-0.23,6.32-3.9,7.37c-2.07,0.79-3.21,1.05-3.67,1.05c0.46,0,1.61,0.26,3.67,0.79
		c3.67,1.05,3.9,6.84,3.9,7.37c0-0.53,0.23-6.32,3.9-7.37c2.07-0.53,3.21-0.79,3.67-0.79c-0.46,0-1.61-0.26-3.67-1.05
		C363.85,461.88,363.62,456.09,363.62,455.57L363.62,455.57z"/>
	<path class="st6" d="M489.64,431.1c0,0.53-0.23,6.58-3.9,7.37c-2.3,0.79-3.21,1.05-3.9,1.05c0.69,0,1.61,0.26,3.9,0.79
		c3.67,1.05,3.9,6.84,3.9,7.37c0-0.53,0-6.32,3.67-7.37c2.3-0.53,3.21-0.79,3.9-0.79c-0.69,0-1.61-0.26-3.9-1.05
		C489.64,437.67,489.64,431.62,489.64,431.1L489.64,431.1z"/>
</g>
<g>
	<path class="st10" d="M668.75,357.13l16.03-32.46c5.03-11.5,10.06-22.99,14.46-34.49h1.26c-0.63,12.85-1.57,32.12-1.57,45.31v21.64
		H668.75z M762.73,357.13h-19.17V248.25h-59.72l-60.66,111.92v35.84h75.75v42.94h44.63v-42.94h19.17V357.13z M844.13,442.67
		c39.29,0,66-34.83,66-100.09c0-64.92-26.72-98.06-66-98.06c-38.97,0-66,32.8-66,98.06C778.13,407.85,805.16,442.67,844.13,442.67
		L844.13,442.67z M844.13,402.78c-11,0-20.43-9.47-20.43-60.19c0-50.38,9.43-58.5,20.43-58.5c11.31,0,20.74,8.11,20.74,58.5
		C864.87,393.31,855.45,402.78,844.13,402.78L844.13,402.78z M970.79,357.13l16.03-32.46c5.03-11.5,10.06-22.99,14.77-34.49h0.94
		c-0.63,12.85-1.57,32.12-1.57,45.31v21.64H970.79z M1064.77,357.13h-19.17V248.25h-59.72l-60.35,111.92v35.84h75.43v42.94h44.63
		v-42.94h19.17V357.13z"/>
</g>
</svg>
