<?xml version="1.0" encoding="utf-8"?>
<!-- Generator: Adobe Illustrator 23.0.3, SVG Export Plug-In . SVG Version: 6.00 Build 0)  -->
<svg version="1.1" id="Layer_1" xmlns="http://www.w3.org/2000/svg" xmlns:xlink="http://www.w3.org/1999/xlink" x="0px" y="0px"
	 viewBox="0 0 566 81.11" style="enable-background:new 0 0 566 81.11;" xml:space="preserve">
<style type="text/css">
	.st0{fill:#FFFFFF;}
</style>
<path class="st0" d="M145,1285.39"/>
<path class="st0" d="M566,81.11H0v-81C20.22-0.38,94.11-2,170.17-0.03c19.25,0.5,38.67,1.27,53.2,14.8
	c12.66,11.79,11.44,24.29,28.96,36.79c4.95,3.53,15.96,11.16,31.17,11.01c14.8-0.15,25.4-7.61,30.33-11.17
	c17.42-12.6,16.31-25.31,28.67-36.83c14.7-13.71,34.64-14.25,53.99-14.5C440.3-0.53,497.64-0.98,566,0.11
	C566,27.11,566,54.11,566,81.11z"/>
<path class="st0" d="M282.32,851.14"/>
<path class="st0" d="M283,451.89"/>
<path class="st0" d="M269.32,469.14"/>
<path class="st0" d="M283,232.14"/>
<path class="st0" d="M25.5,444.89"/>
<path class="st0" d="M255.25,27.89"/>
</svg>
