<?xml version="1.0" encoding="utf-8"?>
<!-- Generator: Adobe Illustrator 23.0.3, SVG Export Plug-In . SVG Version: 6.00 Build 0)  -->
<svg version="1.1" id="Layer_1" xmlns="http://www.w3.org/2000/svg" xmlns:xlink="http://www.w3.org/1999/xlink" x="0px" y="0px"
	 viewBox="0 0 512 512" style="enable-background:new 0 0 512 512;" xml:space="preserve">
<style type="text/css">
	.st0{fill:url(#SVGID_1_);}
	.st1{fill:#FFFFFF;}
</style>
<linearGradient id="SVGID_1_" gradientUnits="userSpaceOnUse" x1="-57.1915" y1="11737.2754" x2="454.8085" y2="11737.2754" gradientTransform="matrix(1 0 0 1 0 -11481.2754)">
	<stop  offset="0" style="stop-color:#663996"/>
	<stop  offset="1" style="stop-color:#EC098D"/>
</linearGradient>
<path class="st0" d="M512,256c0,141.39-114.61,256-256,256S0,397.39,0,256S114.61,0,256,0S512,114.61,512,256z"/>
<g>
	<path class="st1" d="M334.44,281.27l-11.85-10.52c-1.27-0.42-2.52-0.9-3.73-1.43c-1.1,0.1-2.21,0.16-3.3,0.16
		c-0.21,0-0.42-0.01-0.63-0.02L271,308.45V140.36c-0.23-0.65-0.4-1.33-0.53-2.01c-0.77-0.88-1.42-1.85-1.92-2.91
		c-0.31-0.32-0.59-0.65-0.87-1c-1.45-0.45-2.72-1.13-3.8-1.99c-0.34-0.06-0.68-0.11-1.01-0.18h-13.34c-1.09,0.58-2.3,1.02-3.65,1.27
		c-0.19,0.11-0.39,0.2-0.59,0.3c-0.74,1.26-1.69,2.39-2.85,3.33c-0.3,0.96-0.7,1.88-1.2,2.74c-0.01,0.04-0.02,0.09-0.03,0.13
		c-0.05,0.38-0.12,0.76-0.2,1.14v167.27l-42.3-37.54c-0.98-0.27-1.88-0.64-2.7-1.09c-0.45,0.04-0.91,0.07-1.38,0.07
		c-1.03,0-1.99-0.1-2.89-0.28c-1.07,0.72-2.17,1.39-3.3,2.02l-8.96,7.95c-0.41,0.88-0.92,1.71-1.52,2.48
		c-0.18,0.86-0.43,1.7-0.76,2.5c0.23,1.09,0.35,2.21,0.34,3.34c0.58,0.97,1.05,2.01,1.38,3.1l59.74,53.03
		c1.15,0.56,2.16,1.27,3.03,2.11c2,0.74,3.64,1.93,4.9,3.42c0.71,0.23,1.37,0.54,2,0.88c1.65,0.11,3.14,0.47,4.44,1.04
		c3.09-0.34,6.19-0.64,9.29-0.86c1.04-0.74,2.24-1.32,3.59-1.71c0.91-0.76,1.95-1.4,3.13-1.88c0.92-0.8,1.98-1.49,3.19-1.99
		l61.67-54.74c0.48-0.88,0.99-1.73,1.53-2.57c0.05-0.91,0.13-1.82,0.25-2.74C335.21,283.77,334.8,282.53,334.44,281.27z"/>
</g>
</svg>
