<svg xmlns="http://www.w3.org/2000/svg" viewBox="0 0 512 512"><path d="M299 502h-90v-86h90v86zm-60-20h30v-36h-30v36z" fill="#8b8992"/><path fill="#57555c" d="M256 446h13v36h-13v20h43v-86h-43z"/><path d="M480 376H31V136h449v240z" fill="#9bc9ff"/><path fill="#009ae5" d="M256 136h225v240H256z"/><path fill="#005ece" d="M180 482h150v30H180z"/><path d="M239 376h-90V171h90v205z" fill="#b87fd9"/><path d="M239 376h-45V171h45v205z" fill="#8034ad"/><path d="M290 131H98L59 0h58c20 0 44 7 62 21V0h150l-39 131z" fill="#8b8992"/><path fill="#57555c" d="M329 0H194v131h96z"/><path d="M248 201H140c-24 0-45-20-45-45v-55h198v55c0 25-20 45-45 45z" fill="#e3cef0"/><path d="M194 101v100h54c25 0 45-20 45-45v-55h-99z" fill="#d5b4e8"/><path d="M428 118a52 52 0 01-51-39 52 52 0 0137-64l51-14 14 51a52 52 0 01-38 65l-13 1z" fill="#e0e0e2"/><path d="M479 52L465 1l-64 110a52 52 0 0072-19c7-12 9-26 6-40z" fill="#acabb1"/><path d="M281 410l-78-45 125-216 78 45-125 216z" fill="#ffe477"/><path fill="#ffa733" d="M281 410l-39-22 125-217 39 23z"/><path d="M402 226l-101-58 87-99 56 32-42 125z" fill="#ff9a00"/><path fill="#e67500" d="M444 101l-28-16-64 112 50 29z"/><path d="M480 446H31V346h449v100z" fill="#005ece"/><path d="M256 346h225v100H256zm-1 136h75v30h-75z" fill="#003f8a"/></svg>