<svg xmlns="http://www.w3.org/2000/svg" height="512" width="512"><path d="M464 496V345a48 48 0 00-41-47l-63-10v-64h-80v64l-63 10a48 48 0 00-41 47v151" fill="#fec9a3"/><path d="M344 280a48 48 0 0016-3v-53h-80v53a48 48 0 0016 3z" fill="#feb784"/><path d="M296 368v-32l-16-48-63 10a48 48 0 00-41 47v127h40v24h80zM464 345v87h-48v64h-72V336l16-48 63 10a48 48 0 0141 47z" fill="#348fd9"/><path d="M464 345v87h-48v64h-72v-31c41-34 83-82 109-151a48 48 0 0111 31z" fill="#3086cd"/><path d="M248 360l48-24-16-48-32 5zm96-24l48 24v-67l-32-5z" fill="#62a9e6"/><path d="M216 376h16v120h-16zm192 0h16v120h-16z" fill="#2d7dbf"/><path d="M424 432h56v40h-56zm-264 0h56v40h-56z" fill="#62a9e6"/><path d="M392 120h-8v48h8a24 24 0 000-48zM248 120a24 24 0 100 48h8v-48z" fill="#feb784"/><path d="M392 112v56a72 72 0 01-144 0v-56a72 72 0 01144 0z" fill="#fec9a3"/><path d="M392 112v56a72 72 0 01-47 67 72 72 0 0015-43V96a72 72 0 00-21-51l-4-3a72 72 0 0157 70z" fill="#fec093"/><path d="M248 120V88c0-27 18-48 40-48l-1 5c-8 28-21 54-39 75z" fill="#7a432a"/><path d="M392 120V88c0-27-18-48-40-48l1 5c8 28 21 54 39 75z" fill="#743b20"/><path d="M387 64H260a20 20 0 010-40h87a40 40 0 0140 40zM392 136v80a48 48 0 01-48 48h-52a48 48 0 01-44-48v-80l7 14a32 32 0 0029 18h72a32 32 0 0029-18z" fill="#7a432a"/><path d="M368 424h40v16h-40zm-136 0h40v16h-40zm136-48h16v16h-16z" fill="#2d7dbf"/><path d="M320 176h-16a8 8 0 01-8-10l8-40 16 4-6 30h6z" fill="#f7a468"/><path d="M342 188a99 99 0 01-29 4h-17v16h17a115 115 0 0033-5l-2-8z" fill="#fec9a3"/><g fill="#7a432a"><circle cx="284" cy="124" r="12"/><circle cx="356" cy="124" r="12"/></g><path d="M296 368h48v128h-48z" fill="#e0e0de"/><path d="M387 64h-31a72 72 0 00-35-40h26a40 40 0 0140 40zM392 136v80a48 48 0 01-48 48h-52a72 72 0 0068-72v-24a32 32 0 0025-18z" fill="#743b20"/><path d="M296 368h16v128h-16z" fill="#d6d6d4"/><rect fill="#3d4d63" height="192" rx="16" width="224" x="24" y="304"/><path d="M104 272h64v32h-64z" fill="#348fd9"/><path d="M104 288h64v16h-64z" fill="#3086cd"/><path d="M200 336H72a16 16 0 000 32h128a16 16 0 000-32z" fill="#2e3e51"/><path d="M48 392h16v16H48zm0 32h16v16H48zm32-32h16v16H80zm0 32h16v16H80zm32-32h16v16h-16zm0 32h16v16h-16zm32-32h16v16h-16zm0 32h16v16h-16zm32-32h16v16h-16zm32 0h16v16h-16zM48 456h16v16H48zm32 0h16v16H80zm32 0h16v16h-16zm32 0h16v16h-16zm32-32h16v16h-16zm0 32h16v16h-16zm32 0h16v16h-16zm-80-120h16v32h-16zm-40 0h16v32H88zm80 0h16v32h-16z" fill="#2a3845"/><path d="M285 333a16 16 0 0122 22L206 456h-22v-22z" fill="#2e3e51"/></svg>