<?xml version="1.0" encoding="utf-8"?>
<!-- Svg Vector Icons : http://www.onlinewebfonts.com/icon -->
<!DOCTYPE svg PUBLIC "-//W3C//DTD SVG 1.1//EN" "http://www.w3.org/Graphics/SVG/1.1/DTD/svg11.dtd">
<svg version="1.1" xmlns="http://www.w3.org/2000/svg" xmlns:xlink="http://www.w3.org/1999/xlink" x="0px" y="0px" viewBox="0 0 1000 1000" enable-background="new 0 0 1000 1000" xml:space="preserve">
<metadata> Svg Vector Icons : http://www.onlinewebfonts.com/icon </metadata>
<g><g><g><path d="M547.6,218.2c-12.4-14.5-30.6-22.9-49.7-22.9c-19.1,0-37.3,8.4-49.7,22.9L169.4,545c-17.3,20.3-24.8,47.2-20.3,73.5l50.6,301.9c5.3,31.5,32.5,54.3,64.4,54.3h243.2c-0.1-1.1,0.1-1.6,0.1-2.6V753c0-14.2,11.3-25.9,25.6-25.9h117.2c14.2,0,25.9,11.7,25.9,25.9v221.8h55.8c31.9,0,59.2-22.9,64.4-54.3l50.6-302c4.4-26.3-3-53.1-20.4-73.4L547.6,218.2z M431.7,830.8c0,14.2-11.5,25.8-25.8,25.8h-89.5c-14.2,0-25.8-11.5-25.8-25.8v-89.5c0-14.2,11.5-25.8,25.8-25.8h89.5c14.2,0,25.8,11.5,25.8,25.8V830.8z"/><path d="M976.1,469L629.7,83.8C596.2,46.5,548,24.6,497.9,25.3c-50.2,0.1-98.1,21.7-131.5,59.2L23.7,469.2c-19.9,22.4-17.9,56.7,4.4,76.6c10.4,9.2,23.2,13.7,36.1,13.7c14.9,0,29.8-6.1,40.5-18.2l342.7-384.6c12.9-14.5,31.4-22.6,50.7-22.6c0.1,0,0.1,0,0.2,0c19.3,0,37.8,8,50.7,22.4l346.4,385.2c20,22.3,54.4,24.1,76.6,4C994.3,525.7,996.1,491.3,976.1,469z"/></g></g><g></g><g></g><g></g><g></g><g></g><g></g><g></g><g></g><g></g><g></g><g></g><g></g><g></g><g></g><g></g></g>
</svg>