<svg xmlns="http://www.w3.org/2000/svg" viewBox="0 0 512 512"><circle cx="304.7" cy="278.1" r="168.3" fill="none" stroke="#ed1c24" stroke-width="36"/><g fill="#ed1c24"><path d="M215 147c11 0 22-5 29-12 7-8 13-19 12-30-1-22-18-41-41-41-11 0-22 5-29 12s-13 19-12 29c1 23 18 42 41 42zm-73 56c14 0 28-13 28-28-1-14-12-27-28-27-14 0-28 13-27 27 0 15 12 28 27 28zm-35 106c12 0 24-5 32-13s14-21 13-32c0-12-4-24-13-32s-20-13-32-13-24 5-32 13-14 21-13 32c0 12 4 24 13 32s20 13 32 13zM79 189c8 0 17-8 16-17 0-9-7-16-16-16s-17 7-17 16c1 9 8 17 17 17zm-45 38c11 0 21-10 20-21 0-11-9-21-20-21s-21 10-21 21c1 11 9 21 21 21zm30-112c15 0 29-13 28-28S80 60 64 60c-14 0-28 12-27 27s12 28 27 28zm-30 42c16 0 16-25 0-25s-16 25 0 25z"/><circle cx="305.5" cy="279.5" r="102.3" stroke="#ed1c24" stroke-width="26"/><path d="M133 124c10 0 21-10 20-21 0-11-9-20-20-20s-22 9-21 20c0 11 9 21 21 21z"/></g></svg>