<svg xmlns="http://www.w3.org/2000/svg" viewBox="0 0 512 512"><path d="M118 221v40c0 7-4 12-10 14l-62 19c-11 4-20 15-20 27v103c0 19 16 35 36 35h203V221H118z" fill="#d29b6e"/><path d="M168 327c-34 0-65-18-82-45l-40 12c-11 4-20 15-20 27v103c0 19 16 35 36 35h203V230c0 53-44 97-97 97z" fill="#59d8ff"/><path d="M265 230c0 53-44 97-97 97-34 0-65-18-82-45l-17 5a115 115 0 00196 3v-60zM177 415H88c-5 0-9-4-9-9v-42c0-7-2-14-7-19l-41-40c-3 5-5 10-5 16v103c0 19 16 35 36 35h141v-18c0-14-12-26-26-26z" fill="#00c3f0"/><path d="M243 159h-2l-3-62H98v62h-5c-8 0-14 6-14 13v18c0 7 6 13 14 13h8l1 9c2 7 5 13 10 17l29 24c3 3 8 5 13 5h27c5 0 10-2 14-5l28-24c5-4 9-10 10-17l1-9h9c7 0 13-6 13-13v-18c0-7-6-13-13-13z" fill="#f0c087"/><path d="M238 97H98v62h-5c-8 0-14 6-14 13v18c0 7 6 13 14 13h8l1 9c2 7 5 13 10 17l29 24c3 3 8 5 13 5h11l-12-38c-2-5-3-11-3-17v-53c0-5 4-9 9-9 0 0 9 0 12-4a39 39 0 0036 0 39 39 0 0020 4h14l-3-44z" fill="#e6af78"/><path d="M274 95c0-9-7-18-16-20a21 21 0 00-20-29h-1a21 21 0 00-26-13 25 25 0 00-24-8 28 28 0 00-39 0h-5c-7 0-13 2-17 7h-1c-9 0-17 6-20 14h-1a21 21 0 00-19 29 21 21 0 00-11 34 21 21 0 006 33c0 9 8 17 17 17h8c3 0 6-3 7-6l5-30 1 1c8 0 14-4 18-10a21 21 0 0035 0 21 21 0 0036 0c3 6 10 10 17 10l2-1 5 30c0 3 3 6 7 6h9c10 0 18-8 18-18a21 21 0 003-32c4-3 6-8 6-14z" fill="#694b4b"/><path d="M163 108a21 21 0 01-9-34 21 21 0 0110-34 21 21 0 014-22c-8 0-15 3-20 7h-5c-7 0-13 2-17 7h-1c-9 0-17 6-20 14h-1a21 21 0 00-19 29 21 21 0 00-11 34 21 21 0 006 33c0 9 8 17 17 17h8c3 0 6-3 7-6l5-30 1 1c8 0 14-4 18-10a21 21 0 0030 5c-2-2-4-6-4-10l1-1z" fill="#5a4146"/><path d="M150 415h27c14 0 26 12 26 26v18h-53v-44z" fill="#e6af78"/><path d="M486 397H221c-15 0-27-12-27-26V212c0-15 12-27 27-27h265c14 0 26 12 26 27v159c0 14-12 26-26 26z" fill="#d5dced"/><path d="M406 459l-16-117c-1-9-8-15-17-15h-40c-9 0-16 6-17 15l-16 117v18h106v-18z" fill="#afb9d2"/><circle cx="353.1" cy="273.7" r="17.7" fill="#fff"/><path d="M503 494H9c-5 0-9-4-9-8v-18c0-5 4-9 9-9h494c5 0 9 4 9 9v18c0 4-4 8-9 8z" fill="#f5dcb4"/></svg>