<svg xmlns="http://www.w3.org/2000/svg" viewBox="0 0 512 512"><path d="M58 107h396v290h20V102c0-7-6-12-13-12H51c-7 0-12 5-12 12v295h19V107z" fill="#2d2d2d"/><path d="M58 107v290h396V107H58zm354 218l-22-4v-16l-26-5v54H100V150h264v49l26-5v-12l21-4v147h1z" fill="#8ad5dd"/><path d="M512 397H0v8h512v-8z" fill="#e8e8e8"/><path fill="#c9c9c9" d="M486 422l26-17H0l26 17z"/><path d="M390 194l-26 5v-49H100v204h264v-54l26 5v16l21 4V178l-21 4v12zm-71-29h22v12h-22v-12zm-39 0h22v12h-22v-12zm-39 0h22v12h-22v-12zm-39 0h22v12h-22v-12zm-38 0h22v12h-22v-12zm-39 0h22v12h-22v-12zm22 174h-22v-13h22v13zm39 0h-22v-13h22v13zm38 0h-22v-13h22v13zm39 0h-22v-13h22v13zm39 0h-22v-13h22v13zm39 0h-22v-13h22v13zm0-22H125V187h216v130z" fill="#2d2d2d"/><path d="M341 187H125v130h216V187zM201 294v-85l80 43-80 42z" fill="#db2b42"/><path d="M125 165h22v12h-22zm39 0h22v12h-22zm38 0h22v12h-22zm39 0h22v12h-22zm39 0h22v12h-22zm39 0h22v12h-22zM125 326h22v13h-22zm39 0h22v13h-22zm38 0h22v13h-22zm39 0h22v13h-22zm39 0h22v13h-22zm39 0h22v13h-22zm-118-32l80-42-80-43z" fill="#fff"/></svg>